<svg version="1.1" xmlns="http://www.w3.org/2000/svg" xmlns:xlink="http://www.w3.org/1999/xlink" width="1695" height="1514"><defs/><g><g/><g/><g/><g/><g/><g/><g/><g/><g/><g/><g/><g/><g/><g/><g/><g/><g/><g/><g/><g/><g/><g/><g/><g/><g/><g/><g/><g/><g/><g><rect fill="white" stroke="none" x="0" y="0" width="1695" height="1514"/></g><g><text fill="black" stroke="none" font-family="sans-serif" font-size="16.5pt" font-style="normal" font-weight="normal" text-decoration="normal" x="785.4095893662598" y="22.6179738" text-anchor="start" dominant-baseline="alphabetic" xml:space="preserve">F1 Register</text></g><g/><g><path fill="none" stroke="black" paint-order="fill stroke markers" d=" M 90.57265742470703 119.72447464800001 L 90.57265742470703 1514.4995256479997" stroke-miterlimit="10" stroke-width="1.2565541" stroke-dasharray="11.598960923076923,5.0262164"/><path fill="none" stroke="black" paint-order="fill stroke markers" d=" M 454.7543788891601 119.72447464800001 L 454.7543788891601 1514.4995256479997" stroke-miterlimit="10" stroke-width="1.2565541" stroke-dasharray="11.598960923076923,5.0262164"/><path fill="none" stroke="black" paint-order="fill stroke markers" d=" M 881.1227458614256 119.72447464800001 L 881.1227458614256 1514.4995256479997" stroke-miterlimit="10" stroke-width="1.2565541" stroke-dasharray="11.598960923076923,5.0262164"/><path fill="none" stroke="black" paint-order="fill stroke markers" d=" M 1307.4911128336912 119.72447464800001 L 1307.4911128336912 1514.4995256479997" stroke-miterlimit="10" stroke-width="1.2565541" stroke-dasharray="11.598960923076923,5.0262164"/><path fill="none" stroke="black" paint-order="fill stroke markers" d=" M 1619.6259296807616 119.72447464800001 L 1619.6259296807616 1514.4995256479997" stroke-miterlimit="10" stroke-width="1.2565541" stroke-dasharray="11.598960923076923,5.0262164"/></g><g><g><path fill="white" stroke="black" paint-order="fill stroke markers" d=" M 99.16748746870704 55.941788532 A 8.594830044 8.594830044 0 1 1 99.16748317129236 55.93319370338846 M 90.57265742470703 64.536618576 L 90.57265742470703 82.93257059999999 M 79.71603000070704 71.171224224 L 101.42928484870703 71.171224224 M 90.57265742470703 82.93257059999999 L 79.71603000070704 100.122230688 M 90.57265742470703 82.93257059999999 L 101.42928484870703 100.122230688" stroke-miterlimit="10" stroke-width="2.5633703640000003" stroke-dasharray=""/></g><g><g/><text fill="black" stroke="none" font-family="sans-serif" font-size="11pt" font-style="normal" font-weight="normal" text-decoration="normal" x="7.5393246000000005" y="115.20087988800002" text-anchor="start" dominant-baseline="alphabetic" xml:space="preserve">Neprijavljen uporabnik</text></g><g><path fill="white" stroke="black" paint-order="fill stroke markers" d=" M 484.6854975511601 76.448751444 A 22.391794062000002 22.391794062000002 0 1 1 484.68548635526395 76.42635965366995 M 426.10494540916005 52.775272199999996 L 426.10494540916005 100.122230688 M 424.82326022716006 76.448751444 L 439.90190942716004 76.448751444" stroke-miterlimit="10" stroke-width="2.5633703640000003" stroke-dasharray=""/></g><g><text fill="black" stroke="none" font-family="sans-serif" font-size="11pt" font-style="normal" font-weight="normal" text-decoration="normal" x="405.59437904174797" y="115.200879888" text-anchor="start" dominant-baseline="alphabetic" xml:space="preserve">view:Register</text></g><g><path fill="white" stroke="black" paint-order="fill stroke markers" d=" M 903.5145399234257 76.448751444 A 22.391794062000002 22.391794062000002 0 1 1 903.5145287275295 76.42635965366995 M 878.1070160214257 54.05695738199999 L 887.1542055414257 46.51763278199999 M 878.1070160214257 54.05695738199999 L 887.1542055414257 61.596281981999994" stroke-miterlimit="10" stroke-width="2.5633703640000003" stroke-dasharray=""/></g><g><text fill="black" stroke="none" font-family="sans-serif" font-size="11pt" font-style="normal" font-weight="normal" text-decoration="normal" x="740.2360728877928" y="115.200879888" text-anchor="start" dominant-baseline="alphabetic" xml:space="preserve">view-controler:LoginRegisterController</text></g><g><path fill="white" stroke="black" paint-order="fill stroke markers" d=" M 1329.8829068956911 76.448751444 A 22.391794062000002 22.391794062000002 0 1 1 1329.8828956997952 76.42635965366995 M 1304.4753829936913 54.05695738199999 L 1313.5225725136913 46.51763278199999 M 1304.4753829936913 54.05695738199999 L 1313.5225725136913 61.596281981999994" stroke-miterlimit="10" stroke-width="2.5633703640000003" stroke-dasharray=""/></g><g><text fill="black" stroke="none" font-family="sans-serif" font-size="11pt" font-style="normal" font-weight="normal" text-decoration="normal" x="1265.077778940869" y="115.200879888" text-anchor="start" dominant-baseline="alphabetic" xml:space="preserve">API:UserAPI</text></g><g><path fill="white" stroke="black" paint-order="fill stroke markers" d=" M 1597.6111018487616 90.170322216 L 1597.6111018487616 58.505158896 L 1641.6407575127616 58.505158896 L 1641.6407575127616 90.170322216" stroke-miterlimit="10" stroke-width="2.5633703640000003" stroke-dasharray=""/><path fill="white" stroke="black" paint-order="fill stroke markers" d=" M 1641.6407575127616 57.404417504399994 L 1641.6396567805427 57.50393493047687 L 1641.6363546939588 57.60344240489408 L 1641.6308515832154 57.702929976987086 L 1641.623147998619 57.802387698081596 L 1641.613244710522 57.90180562248838 L 1641.6011427092446 58.00117380849784 L 1641.586843204977 58.10048231937419 L 1641.5703476276576 58.19972122434909 L 1641.5516576268305 58.29888059961475 L 1641.5307750714803 58.39795052931627 L 1641.5077020498447 58.49692110654324 L 1641.4824408692073 58.59578243432041 L 1641.4549940556647 58.69452462659739 L 1641.4253643538752 58.79313780923724 L 1641.3935547267847 58.89161212100387 L 1641.3595683553292 58.989937714548155 L 1641.3234086381174 59.08810475739269 L 1641.2850791910912 59.186103432915 L 1641.244583847163 59.28392394132919 L 1641.2019266558339 59.38155650066594 L 1641.1571118827871 59.478991347750664 L 1641.1101440094628 59.576218739179865 L 1641.061027732609 59.67322895229542 L 1641.0097679638125 59.77001228615685 L 1640.9563698290076 59.86655906251143 L 1640.9008386679632 59.96285962676197 L 1640.843180033749 60.0589043489323 L 1640.7833996921804 60.15468362463025 L 1640.7215036212422 60.250187876008056 L 1640.6574980104892 60.345407552720175 L 1640.5913892604294 60.440333132878266 L 1640.523183981883 60.53495512400344 L 1640.4528889953208 60.62926406397542 L 1640.3805113301828 60.72325052197881 L 1640.3060582241753 60.816905099446124 L 1640.229537122547 60.910218430997666 L 1640.150955677344 61.00318118537804 L 1640.0703217466455 61.09578406638928 L 1639.9876433937773 61.18801781382044 L 1639.9029288865058 61.27987320437365 L 1639.8161866962114 61.3713410525864 L 1639.7274254970405 61.46241221175009 L 1639.636654165039 61.5530775748247 L 1639.5438817772647 61.643328075349466 L 1639.449117610879 61.73315468834955 L 1639.3523711422197 61.822548431238516 L 1639.2536520458527 61.91150036471656 L 1639.1529701936056 62.00000159366446 L 1639.0503356535799 62.08804326803307 L 1638.9457586891435 62.17561658372833 L 1638.8392497579064 62.26271278349164 L 1638.7308195106725 62.34932315777561 L 1638.6204787903764 62.43543904561498 L 1638.508238630998 62.521051835492734 L 1638.3941102564597 62.60615296620123 L 1638.278105079504 62.690733927698304 L 1638.1602347005519 62.774786261958305 L 1638.040510906543 62.85830156381783 L 1637.9189456697568 62.941271481816315 L 1637.795551146616 63.02368771903109 L 1637.67033967647 63.1055420339071 L 1637.543323780361 63.186826241081086 L 1637.4145161597735 63.26753221220006 L 1637.2839296953618 63.34765187673417 L 1637.1515774456636 63.42717722278372 L 1637.0174726457935 63.50610029788039 L 1636.88162870612 63.58441320978242 L 1636.7440592109235 63.66210812726389 L 1636.604777917039 63.739177280897806 L 1636.46379875248 63.81561296383302 L 1636.3211358150452 63.89140753256494 L 1636.1768033709095 63.96655340769984 L 1636.0308158531975 64.04104307471285 L 1635.8831878605386 64.11486908469932 L 1635.7339341556096 64.1880240551198 L 1635.5830696636563 64.26050067053818 L 1635.4306094710023 64.33229168335333 L 1635.27656882354 64.4033899145238 L 1635.1209631252052 64.47378825428571 L 1634.9638079364388 64.54347966286376 L 1634.8051189726282 64.61245717117517 L 1634.6449121025375 64.68071388152656 L 1634.4832033467208 64.74824296830381 L 1634.3200088759181 64.8150376786545 L 1634.1553450094411 64.88109133316327 L 1633.9892282135393 64.9463973265197 L 1633.8216750997533 65.01094912817888 L 1633.652702423255 65.07474028301444 L 1633.4823270811717 65.13776441196404 L 1633.3105661108953 65.20001521266732 L 1633.1374366883797 65.2614864600961 L 1632.9629561264228 65.32217200717683 L 1632.7871418729353 65.3820657854054 L 1632.6100115091965 65.44116180545389 L 1632.4315827480948 65.49945415776952 L 1632.2518734323578 65.55693701316567 L 1632.070901532767 65.61360462340468 L 1631.888685146362 65.66945132177275 L 1631.7052424946294 65.72447152364661 L 1631.5205919216812 65.77865972705189 L 1631.3347518924213 65.83201051321342 L 1631.1477409906975 65.88451854709703 L 1630.9595779174442 65.9361785779431 L 1630.7702814888119 65.9869854397916 L 1630.5798706342857 66.03693405199866 L 1630.3883643947925 66.08601941974472 L 1630.1957819207964 66.13423663453388 L 1630.0021424703846 66.18158087468484 L 1629.8074654073407 66.22804740581307 L 1629.6117701992086 66.27363158130416 L 1629.4150764153462 66.31832884277853 L 1629.2174037249679 66.3621347205473 L 1629.0187718951781 66.40504483405921 L 1628.8192007889943 66.44705489233864 L 1628.6187103633606 66.48816069441477 L 1628.4173206671526 66.52835812974169 L 1628.215051839172 66.56764317860932 L 1628.0119241061334 66.60601191254551 L 1627.8079577806404 66.64346049470888 L 1627.6031732591557 66.67998518027238 L 1627.3975910199608 66.7155823167979 L 1627.1912316211085 66.75024834460147 L 1626.9841156983664 66.7839797971092 L 1626.7762639631546 66.81677330120391 L 1626.5676972004728 66.84862557756256 L 1626.3584362668241 66.87953344098403 L 1626.148502088127 66.90949380070775 L 1625.937915657625 66.9385036607227 L 1625.726698033785 66.96656012006707 L 1625.5148703381935 66.9936603731183 L 1625.3024537534438 67.01980170987368 L 1625.0894695210175 67.04498151622128 L 1624.8759389391598 67.0691972742015 L 1624.6618833607513 67.09244656225869 L 1624.4473241911717 67.11472705548341 L 1624.2322828861586 67.13603652584493 L 1624.0167809496636 67.15637284241396 L 1623.8008399317007 67.1757339715758 L 1623.5844814261918 67.19411797723365 L 1623.3677270688074 67.21152302100226 L 1623.1505985348022 67.22794736239179 L 1622.9331175368486 67.24338935898176 L 1622.7153058228655 67.25784746658539 L 1622.4971851738428 67.27132023940396 L 1622.2787774016633 67.28380633017143 L 1622.0601043469226 67.29530449028911 L 1621.8411878767436 67.3058135699506 L 1621.622049882591 67.31533251825665 L 1621.402712278082 67.3238603833204 L 1621.1831969967934 67.33139631236241 L 1620.9635259900713 67.3379395517961 L 1620.7437212248328 67.34348944730294 L 1620.5238046813713 67.34804544389803 L 1620.303798351158 67.3516070859855 L 1620.0837242346427 67.3541740174041 L 1619.8636043390534 67.35574598146285 L 1619.6434606761964 67.35632282096664 L 1619.4233152602544 67.35590447823199 L 1619.2031901055857 67.35449099509283 L 1618.983107224522 67.35208251289632 L 1618.7630886251684 67.34867927248864 L 1618.5431563092013 67.344281614191 L 1618.3233322696692 67.33888997776559 L 1618.1036384887925 67.33250490237154 L 1617.8840969357666 67.32512702651107 L 1617.6647295645635 67.31675708796561 L 1617.4455583117378 67.30739592372207 L 1617.226605094232 67.29704446988903 L 1617.0078918071854 67.28570376160329 L 1616.7894403217445 67.27337493292619 L 1616.5712724828757 67.26005921673035 L 1616.3534101071812 67.24575794457628 L 1616.135874980717 67.23047254657928 L 1615.9186888568145 67.21420455126642 L 1615.701873453905 67.19695558542367 L 1615.485450453348 67.17872737393323 L 1615.2694414972634 67.15952173960108 L 1615.0538681863668 67.13934060297463 L 1614.8387520778097 67.11818598215072 L 1614.6241146830234 67.09605999257383 L 1614.409977465569 67.07296484682446 L 1614.1963618389893 67.04890285439795 L 1613.983289164669 67.02387642147347 L 1613.7707807496984 66.99788805067348 L 1613.5588578447416 66.9709403408134 L 1613.3475416419124 66.94303598664175 L 1613.1368532726551 66.91417777857069 L 1612.9268138056311 66.884368602397 L 1612.7174442446121 66.85361143901343 L 1612.5087655263796 66.82190936411071 L 1612.3007985186316 66.7892655478699 L 1612.0935640178957 66.75568325464543 L 1611.887082747449 66.72116584263863 L 1611.6813753552467 66.68571676356193 L 1611.4764624118563 66.6493395622937 L 1611.2723644084017 66.61203787652377 L 1611.0691017545132 66.57381543638961 L 1610.8666947762865 66.5346760641034 L 1610.6651637142509 66.49462367356972 L 1610.4645287213448 66.4536622699943 L 1610.2648098609002 66.4117959494833 L 1610.0660271046365 66.36902889863394 L 1609.868200330664 66.32536539411564 L 1609.671349321495 66.28080980224246 L 1609.4754937620664 66.23536657853647 L 1609.280653237771 66.18904026728217 L 1609.086847232499 66.14183550107207 L 1608.8940951266893 66.09375700034346 L 1608.7024161953918 66.04480957290635 L 1608.51182960634 65.99499811346269 L 1608.3223544180337 65.9443276031169 L 1608.1340095778341 65.89280310887783 L 1607.9468139200685 65.84042978315193 L 1607.760786164146 65.78721286322815 L 1607.575944912688 65.73315767075412 L 1607.392308649665 65.67826961120406 L 1607.2098957385504 65.62255417333817 L 1607.0287244204835 65.56601692865381 L 1606.848812812445 65.50866353082833 L 1606.6701789054455 65.45049971515373 L 1606.4928405627275 65.3915312979631 L 1606.3168155179767 65.331764176049 L 1606.1421213735516 65.27120432607386 L 1605.9687755987206 65.20985780397217 L 1605.7967955279169 65.14773074434505 L 1605.626198359004 65.08482935984667 L 1605.4570011515573 65.02115994056305 L 1605.289220825156 64.9567288533831 L 1605.1228741576929 64.89154254136182 L 1604.9579777836964 64.82560752307609 L 1604.7945481926663 64.7589303919728 L 1604.6326017274255 64.69151781570949 L 1604.4721545824857 64.62337653548761 L 1604.3132228024276 64.5545133653784 L 1604.155822280297 64.48493519164148 L 1603.9999687560144 64.41464897203626 L 1603.845677814803 64.34366173512612 L 1603.6929648856278 64.27198057957558 L 1603.5418452396548 64.19961267344047 L 1603.3923339887224 64.12656525345112 L 1603.2444460838315 64.05284562428861 L 1603.0981963136487 63.97846115785447 L 1602.95359930303 63.90341929253332 L 1602.8106695115553 63.82772753244919 L 1602.6694212320847 63.751393446714985 L 1602.5298685893288 63.67442466867568 L 1602.3920255384353 63.59682889514493 L 1602.2559058635945 63.51861388563544 L 1602.1215231766605 63.439787461582966 L 1601.98889091579 63.36035750556424 L 1601.8580223440983 63.28033196050866 L 1601.728930548334 63.19971882890405 L 1601.6016284375687 63.118526171996386 L 1601.4761287419074 63.03676210898371 L 1601.3524440112153 62.95443481620418 L 1601.2305866138624 62.87155252631846 L 1601.1105687354866 62.78812352748649 L 1600.992402377776 62.70415616253861 L 1600.8760993572678 62.619658828141354 L 1600.7616713041673 62.534639973957745 L 1600.6491296611841 62.44910810180235 L 1600.538485682389 62.36307176479111 L 1600.4297504320875 62.27653956648603 L 1600.3229347837141 62.189520160034824 L 1600.2180494187448 62.102022247305634 L 1600.1151048256284 62.014054578016804 L 1600.0141112987385 61.92562594886197 L 1599.9150789373437 61.83674520263035 L 1599.8180176445976 61.7474212273225 L 1599.7229371265487 61.657662955261515 L 1599.6298468911693 61.567479362199805 L 1599.5387562474057 61.47687946642152 L 1599.449674304246 61.38587232784074 L 1599.3626099698104 61.29446704709548 L 1599.27757195046 61.202672764637654 L 1599.1945687499256 61.110498659819 L 1599.1136086684583 61.017953949973204 L 1599.0346998019986 60.92504788949412 L 1598.9578500413677 60.83178976891037 L 1598.8830670714772 60.7381889139563 L 1598.810358370562 60.644254684639414 L 1598.7397312094315 60.54999647430436 L 1598.671192650743 60.455423708693615 L 1598.6047495482956 60.36054584500494 L 1598.5404085463435 60.26537237094564 L 1598.4781760789338 60.16991280378381 L 1598.4180583692612 60.07417668939661 L 1598.3600614290465 59.9781736013157 L 1598.3041910579357 59.88191313976989 L 1598.2504528429188 59.785404930725115 L 1598.198852157773 59.68865862492186 L 1598.1493941625238 59.59168389691008 L 1598.1020838029292 59.494490444081755 L 1598.0569258099858 59.3970879857012 L 1598.0139246994556 59.299486261933055 L 1597.9730847714136 59.20169503286838 L 1597.9344101098184 59.103724077548584 L 1597.897904582104 59.00558319298756 L 1597.8635718387932 58.907282193191975 L 1597.831415313131 58.80883090817989 L 1597.8014382207436 58.710239182997775 L 1597.7736435593154 58.611516876735976 L 1597.748034108289 58.51267386154286 L 1597.7246124285882 58.41372002163757 L 1597.7033808623619 58.31466525232164 L 1597.6843415327485 58.215519458989455 L 1597.6674963436653 58.11629255613773 L 1597.6528469796172 58.01699446637406 L 1597.6403949055284 57.917635119424666 L 1597.630141366596 57.818224451141454 L 1597.622087388165 57.7187724025084 L 1597.616233775627 57.6192889186475 L 1597.6125811143381 57.51978394782424 L 1597.6111297695616 57.42026744045276 L 1597.6118798864304 57.3207493481009 L 1597.6148313899337 57.221239622494934 L 1597.6199839849235 57.12174821452452 L 1597.6273371561447 57.02228507324753 L 1597.6368901682863 56.92286014489522 L 1597.6486420660551 56.82348337187756 L 1597.662591674271 56.72416469178904 L 1597.6787375979845 56.62491403641491 L 1597.6970782226174 56.52574133073799 L 1597.717611714122 56.42665649194621 L 1597.7403360191663 56.32766942844088 L 1597.765248865339 56.22879003884586 L 1597.792347761376 56.1300282110177 L 1597.8216299974104 56.031393821056895 L 1597.853092645243 55.932896732320245 L 1597.8867325586348 55.83454679443454 L 1597.9225463736232 55.73635384231161 L 1597.9605305088562 55.63832769516483 L 1598.0006811659518 55.54047815552725 L 1598.0429943298782 55.442815008271275 L 1598.0874657693537 55.34534801963025 L 1598.1340910372717 55.24808693622182 L 1598.1828654711444 55.15104148407327 L 1598.2337841935687 55.054221367648935 L 1598.2868421127152 54.957636268879796 L 1598.3420339228358 54.861295846195226 L 1598.3993541047957 54.76520973355722 L 1598.4587969266245 54.66938753949697 L 1598.5203564440897 54.57383884615402 L 1598.5840265012903 54.47857320831808 L 1598.6498007312741 54.38360015247356 L 1598.7176725566728 54.288929175846896 L 1598.7876351903606 54.19456974545685 L 1598.859681636132 54.10053129716784 L 1598.933804689403 54.00682323474632 L 1599.0099969379294 53.913454928920444 L 1599.0882507625504 53.820435716442994 L 1599.1685583379485 53.7277748991577 L 1599.2509116334331 53.635481743069064 L 1599.3353024137434 53.5435654774158 L 1599.4217222398715 53.45203529374787 L 1599.510162469907 53.36090034500735 L 1599.6006142599006 53.2701697446132 L 1599.6930685647483 53.17985256554982 L 1599.787516139097 53.08995783945988 L 1599.883947538268 53.00049455574105 L 1599.9823531192017 52.911471660647166 L 1600.082723041422 52.82289805639355 L 1600.18504726802 52.73478260026681 L 1600.2893155666588 52.64713410373914 L 1600.3955175105953 52.55996133158715 L 1600.5036424797233 52.4732730010154 L 1600.6136796616365 52.387077780784715 L 1600.725618052708 52.30138429034529 L 1600.839446459192 52.21620109897476 L 1600.9551534983427 52.13153672492127 L 1601.072727599553 52.047399634551674 L 1601.1921570055104 51.963798241504904 L 1601.3134297733739 51.88074090585058 L 1601.4365337759675 51.79823593325307 L 1601.561456702994 51.71629157414086 L 1601.6881860622648 51.6349160228816 L 1601.8167091809491 51.55411741696258 L 1601.9470132068427 51.47390383617708 L 1602.079085109651 51.394283301816316 L 1602.2129116822941 51.315263775867386 L 1602.3484795422264 51.23685316021703 L 1602.4857751327747 51.159059295861475 L 1602.6247847244945 51.081889962122325 L 1602.7654944165422 51.005352875868645 L 1602.907890138066 50.92945569074528 L 1603.0519576496124 50.8542059964075 L 1603.1976825445504 50.77961131776203 L 1603.3450502505118 50.70567911421457 L 1603.494046030849 50.63241677892386 L 1603.644654986108 50.559831638062384 L 1603.7968620555187 50.487930950083744 L 1603.950652018501 50.41672190499681 L 1604.1060094961867 50.34621162364676 L 1604.262918952958 50.276407157002964 L 1604.4213646979995 50.207315485453925 L 1604.5813308868687 50.13894351810921 L 1604.7428015230803 50.071298092108584 L 1604.9057604597049 50.00438597193828 L 1605.070191400985 49.938213848754536 L 1605.2360779039634 49.87278833971455 L 1605.4034033801279 49.80811598731469 L 1605.5721510970704 49.74420325873631 L 1605.7423041801599 49.68105654519901 L 1605.9138456142298 49.61868216132152 L 1606.0867582452795 49.557086344490244 L 1606.2610247821904 49.496275254235535 L 1606.4366277984534 49.436254971615746 L 1606.613549733914 49.37703149860913 L 1606.7917728965253 49.31861075751362 L 1606.9712794641202 49.260998590354646 L 1607.152051486191 49.20420075830092 L 1607.3340708856867 49.148222941088314 L 1607.5173194608185 49.0930707364519 L 1607.7017788868818 49.03874965956618 L 1607.887430718088 48.985265142493574 L 1608.0742563894082 48.93262253364123 L 1608.2622372184312 48.880827097226145 L 1608.4513544072306 48.82988401274882 L 1608.6415890442454 48.779798374475234 L 1608.8329221061704 48.73057519092748 L 1609.0253344598584 48.6822193843829 L 1609.218806864235 48.634735790381846 L 1609.4133199722205 48.58812915724415 L 1609.6088543326664 48.54240414559428 L 1609.8053903922996 48.497565327895316 L 1610.0029084976777 48.45361718799164 L 1610.201388897155 48.41056412066064 L 1610.4008117428573 48.36841043117315 L 1610.6011570926655 48.32716033486301 L 1610.8024049122118 48.28681795670546 L 1611.0045350768821 48.247387330904715 L 1611.2075273738285 48.20887240049048 L 1611.41136150399 48.17127701692371 L 1611.616017084124 48.13460493971143 L 1611.8214736488428 48.0988598360308 L 1612.0277106526607 48.06404528036239 L 1612.2347074720499 48.030164754132784 L 1612.4424434075006 47.997221645366345 L 1612.6508976855923 47.96521924834651 L 1612.8600494610712 47.9341607632863 L 1613.0698778189337 47.90404929600835 L 1613.2803617765192 47.87488785763429 L 1613.491480285607 47.846679364283666 L 1613.7032122345222 47.819426636782296 L 1613.9155364502467 47.793132400380216 L 1614.1284317005354 47.76779928447917 L 1614.341876696041 47.74342982236962 L 1614.5558500924417 47.72002645097748 L 1614.770330492576 47.69759151062038 L 1614.985296448583 47.67612724477367 L 1615.200726464046 47.65563579984603 L 1615.416598996143 47.636119224964894 L 1615.6328924578008 47.61757947177148 L 1615.8495852198532 47.60001839422566 L 1616.0666556132048 47.58343774842055 L 1616.2840819309972 47.567839192406915 L 1616.5018424307796 47.55322428602736 L 1616.7199153366837 47.53959449076034 L 1616.9382788416005 47.52695116957402 L 1617.1569111093615 47.515295586789996 L 1617.375790276922 47.50462890795682 L 1617.594894456548 47.4949521997335 L 1617.8142017380037 47.48626642978277 L 1618.033690190744 47.47857246667442 L 1618.2533378661064 47.47187107979833 L 1618.4731227995067 47.4661629392876 L 1618.693023012634 47.46144861595154 L 1618.9130165156512 47.45772858121853 L 1619.1330813093905 47.45500320708897 L 1619.3531953875563 47.45327276609799 L 1619.5733367389241 47.45253743128824 L 1619.7934833495422 47.4527972761926 L 1620.013613204933 47.45405227482679 L 1620.2337042922948 47.45630230169199 L 1620.4537346027016 47.4595471317874 L 1620.6736821333063 47.4637864406327 L 1620.8935248895386 47.46901980430055 L 1621.1132408873066 47.475246699458935 L 1621.332808155193 47.48246650342354 L 1621.5522047366549 47.49067849421997 L 1621.771408692216 47.499881850656 L 1621.990398101664 47.51007565240366 L 1622.2091510662403 47.52125888009125 L 1622.4276457108306 47.533430415405334 L 1622.6458601861527 47.54658904120252 L 1622.863772670941 47.56073344163121 L 1623.0813613741284 47.575862202263124 L 1623.298604537026 47.59197381023482 L 1623.5154804354984 47.609066654398916 L 1623.7319673821366 47.62713902548525 L 1623.9480437284265 47.64618911627178 L 1624.1636878669133 47.66621502176528 L 1624.378878233363 47.687214739391905 L 1624.5935933089181 47.709186169197395 L 1624.8078116222503 47.732127114057064 L 1625.0215117517064 47.756035279895556 L 1625.2346723274518 47.78090827591621 L 1625.4472720336064 47.806743614840144 L 1625.6592896103768 47.833538713155 L 1625.870703856182 47.86129089137327 L 1626.0814936297738 47.88999737430027 L 1626.29163785235 47.91965529131163 L 1626.501115509664 47.950261676640345 L 1626.7099056541244 47.9818134696734 L 1626.917987406891 48.014307515257784 L 1627.1253399599614 48.047740564016024 L 1627.3319425782533 48.08210927267109 L 1627.5377746016773 48.11741020438076 L 1627.7428154472022 48.1536398290813 L 1627.9470446109146 48.1907945238404 L 1628.1504416700682 48.228870573219574 L 1628.3529862851267 48.2678641696456 L 1628.554658201797 48.30777141379133 L 1628.755437253056 48.34858831496561 L 1628.9553033611658 48.39031079151233 L 1629.1542365396817 48.43293467121861 L 1629.3522168954523 48.476455691732 L 1629.5492246306064 48.520869500986706 L 1629.745240044535 48.56617165763883 L 1629.9402435358597 48.61235763151045 L 1630.1342156043945 48.65942280404266 L 1630.3271368530936 48.70736246875744 L 1630.518987989993 48.75617183172826 L 1630.7097498301393 48.8058460120595 L 1630.899403297507 48.85638004237452 L 1631.0879294269075 48.907768869312406 L 1631.275309365885 48.96000735403328 L 1631.461524376602 49.01309027273221 L 1631.6465558377122 49.06701231716155 L 1631.8303852462238 49.1217680951618 L 1632.0129942193494 49.17735213120079 L 1632.1943644963435 49.23375886692124 L 1632.3744779403298 49.290982661696574 L 1632.5533165401137 49.34901779319501 L 1632.7308624119846 49.407858457951754 L 1632.9070978015031 49.467498771949366 L 1633.0820050852772 49.52793277120614 L 1633.2555667727243 49.58915441237252 L 1633.42776550782 49.65115757333541 L 1633.5985840708345 49.71393605383038 L 1633.7680053800539 49.777483576061684 L 1633.9360124934883 49.841793785330076 L 1634.1025886105665 49.9068602506682 L 1634.2677170738154 49.97267646548376 L 1634.4313813705267 50.03923584821011 L 1634.5935651344068 50.10653174296445 L 1634.7542521472146 50.17455742021338 L 1634.9134263403826 50.24330607744587 L 1635.071071796624 50.31277083985348 L 1635.227172751525 50.38294476101786 L 1635.3817135951197 50.45382082360537 L 1635.5346788734528 50.525391940068815 L 1635.6860532901237 50.59765095335619 L 1635.8358217078173 50.67059063762638 L 1635.9839691498164 50.744203698971745 L 1636.1304808015002 50.81848277614749 L 1636.2753420118256 50.89342044130781 L 1636.4185382947924 50.969009200748616 L 1636.5600553308916 51.045241495656974 L 1636.6998789685376 51.12210970286691 L 1636.837995225483 51.19960613562175 L 1636.9743902902171 51.277723044342814 L 1637.1090505233474 51.35645261740432 L 1637.2419624589627 51.435786981914575 L 1637.37311280598 51.51571820450324 L 1637.5024884494744 51.596238292114656 L 1637.6300764519888 51.67733919280717 L 1637.7558640548293 51.759012796558295 L 1637.8798386793408 51.84125093607571 L 1638.001987928164 51.92404538761401 L 1638.1222995864757 52.007387871797015 L 1638.2407616232106 52.09127005444578 L 1638.3573621922635 52.17568354741193 L 1638.4720896336746 52.26061990941651 L 1638.5849324747956 52.34607064689411 L 1638.6958794314362 52.432027214842186 L 1638.8049194089933 52.51848101767557 L 1638.9120415035602 52.605423410086026 L 1639.0172350030164 52.69284569790677 L 1639.1204893880997 52.78073913898186 L 1639.2217943334579 52.86909494404044 L 1639.3211397086804 52.957904277575636 L 1639.4185155793127 53.0471582587281 L 1639.5139122078492 53.136847962174095 L 1639.607320054706 53.22696441901801 L 1639.6987297791766 53.31749861768927 L 1639.7881322403646 53.408441504843445 L 1639.8755184980985 53.49978398626761 L 1639.9608798138252 53.59151692778973 L 1640.0442076514844 53.68363115619211 L 1640.1254936783616 53.77611746012866 L 1640.2047297659221 53.868966591046075 L 1640.2819079906228 53.96216926410862 L 1640.357020634706 54.05571615912666 L 1640.4300601869695 54.149597921488656 L 1640.5010193435191 54.243805163096596 L 1640.5698910084984 54.33832846330484 L 1640.6366682947983 54.43315836986213 L 1640.7013445247453 54.52828539985682 L 1640.763913230771 54.623700040665206 L 1640.8243681560566 54.719392750902706 L 1640.8827032551599 54.815353961378044 L 1640.9389126946196 54.91157407605014 L 1640.9929908535387 55.0080434729877 L 1641.0449323241464 55.10475250533143 L 1641.0947319123388 55.20169150225869 L 1641.1423846381988 55.29885076995057 L 1641.1878857364932 55.39622059256126 L 1641.2312306571505 55.49379123318963 L 1641.2724150657143 55.591552934852956 L 1641.3114348437782 55.68949592146251 L 1641.3482860893973 55.78761039880126 L 1641.3829651174772 55.88588655550324 L 1641.4154684601444 55.98431456403467 L 1641.4457928670913 56.08288458167672 L 1641.473935305903 56.18158675150977 L 1641.4998929623587 56.28041120339909 L 1641.5236632407145 56.37934805498184 L 1641.5452437639624 56.47838741265531 L 1641.5646323740677 56.57751937256626 L 1641.5818271321862 56.67673402160132 L 1641.596826318856 56.77602143837825 L 1641.6096284341709 56.87537169423813 L 1641.6202321979304 56.974774854238156 L 1641.6286365497665 57.074220978145156 L 1641.6348406492511 57.173700121429626 L 1641.6388438759798 57.27320233626013 L 1641.640645829633 57.3727176724981 M 1641.6407575127616 89.0695808244 L 1641.6396567805427 89.16909825047689 L 1641.6363546939588 89.26860572489409 L 1641.6308515832154 89.3680932969871 L 1641.623147998619 89.46755101808161 L 1641.613244710522 89.56696894248839 L 1641.6011427092446 89.66633712849786 L 1641.586843204977 89.7656456393742 L 1641.5703476276576 89.86488454434911 L 1641.5516576268305 89.96404391961477 L 1641.5307750714803 90.06311384931628 L 1641.5077020498447 90.16208442654325 L 1641.4824408692073 90.26094575432042 L 1641.4549940556647 90.3596879465974 L 1641.4253643538752 90.45830112923726 L 1641.3935547267847 90.55677544100388 L 1641.3595683553292 90.65510103454817 L 1641.3234086381174 90.7532680773927 L 1641.2850791910912 90.85126675291501 L 1641.244583847163 90.9490872613292 L 1641.2019266558339 91.04671982066594 L 1641.1571118827871 91.14415466775068 L 1641.1101440094628 91.24138205917988 L 1641.061027732609 91.33839227229542 L 1641.0097679638125 91.43517560615686 L 1640.9563698290076 91.53172238251143 L 1640.9008386679632 91.62802294676199 L 1640.843180033749 91.72406766893232 L 1640.7833996921804 91.81984694463027 L 1640.7215036212422 91.91535119600807 L 1640.6574980104892 92.01057087272018 L 1640.5913892604294 92.10549645287828 L 1640.523183981883 92.20011844400345 L 1640.4528889953208 92.29442738397543 L 1640.3805113301828 92.38841384197882 L 1640.3060582241753 92.48206841944614 L 1640.229537122547 92.57538175099768 L 1640.150955677344 92.66834450537806 L 1640.0703217466455 92.76094738638929 L 1639.9876433937773 92.85318113382046 L 1639.9029288865058 92.94503652437366 L 1639.8161866962114 93.0365043725864 L 1639.7274254970405 93.1275755317501 L 1639.636654165039 93.2182408948247 L 1639.5438817772647 93.30849139534948 L 1639.449117610879 93.39831800834956 L 1639.3523711422197 93.48771175123852 L 1639.2536520458527 93.57666368471656 L 1639.1529701936056 93.66516491366447 L 1639.0503356535799 93.75320658803308 L 1638.9457586891435 93.84077990372833 L 1638.8392497579064 93.92787610349166 L 1638.7308195106725 94.01448647777562 L 1638.6204787903764 94.10060236561499 L 1638.508238630998 94.18621515549275 L 1638.3941102564597 94.27131628620124 L 1638.278105079504 94.35589724769832 L 1638.1602347005519 94.43994958195832 L 1638.040510906543 94.52346488381785 L 1637.9189456697568 94.60643480181633 L 1637.795551146616 94.68885103903109 L 1637.67033967647 94.77070535390712 L 1637.543323780361 94.8519895610811 L 1637.4145161597735 94.93269553220007 L 1637.2839296953618 95.01281519673418 L 1637.1515774456636 95.09234054278373 L 1637.0174726457935 95.1712636178804 L 1636.88162870612 95.24957652978243 L 1636.7440592109235 95.32727144726391 L 1636.604777917039 95.40434060089783 L 1636.46379875248 95.48077628383304 L 1636.3211358150452 95.55657085256495 L 1636.1768033709095 95.63171672769985 L 1636.0308158531975 95.70620639471286 L 1635.8831878605386 95.78003240469934 L 1635.7339341556096 95.8531873751198 L 1635.5830696636563 95.92566399053818 L 1635.4306094710023 95.99745500335334 L 1635.27656882354 96.06855323452382 L 1635.1209631252052 96.13895157428573 L 1634.9638079364388 96.20864298286378 L 1634.8051189726282 96.27762049117517 L 1634.6449121025375 96.34587720152658 L 1634.4832033467208 96.41340628830382 L 1634.3200088759181 96.48020099865451 L 1634.1553450094411 96.54625465316329 L 1633.9892282135393 96.6115606465197 L 1633.8216750997533 96.67611244817888 L 1633.652702423255 96.73990360301444 L 1633.4823270811717 96.80292773196405 L 1633.3105661108953 96.86517853266734 L 1633.1374366883797 96.92664978009611 L 1632.9629561264228 96.98733532717685 L 1632.7871418729353 97.0472291054054 L 1632.6100115091965 97.10632512545389 L 1632.4315827480948 97.16461747776954 L 1632.2518734323578 97.22210033316568 L 1632.070901532767 97.27876794340469 L 1631.888685146362 97.33461464177277 L 1631.7052424946294 97.38963484364662 L 1631.5205919216812 97.4438230470519 L 1631.3347518924213 97.49717383321342 L 1631.1477409906975 97.54968186709704 L 1630.9595779174442 97.60134189794312 L 1630.7702814888119 97.6521487597916 L 1630.5798706342857 97.70209737199868 L 1630.3883643947925 97.75118273974472 L 1630.1957819207964 97.79939995453388 L 1630.0021424703846 97.84674419468486 L 1629.8074654073407 97.89321072581308 L 1629.6117701992086 97.93879490130416 L 1629.4150764153462 97.98349216277855 L 1629.2174037249679 98.02729804054732 L 1629.0187718951781 98.07020815405922 L 1628.8192007889943 98.11221821233865 L 1628.6187103633606 98.15332401441479 L 1628.4173206671526 98.1935214497417 L 1628.215051839172 98.23280649860932 L 1628.0119241061334 98.27117523254553 L 1627.8079577806404 98.30862381470888 L 1627.6031732591557 98.34514850027239 L 1627.3975910199608 98.38074563679791 L 1627.1912316211085 98.41541166460149 L 1626.9841156983664 98.4491431171092 L 1626.7762639631546 98.48193662120391 L 1626.5676972004728 98.51378889756256 L 1626.3584362668241 98.54469676098404 L 1626.148502088127 98.57465712070776 L 1625.937915657625 98.60366698072272 L 1625.726698033785 98.63172344006709 L 1625.5148703381935 98.65882369311832 L 1625.3024537534438 98.6849650298737 L 1625.0894695210175 98.7101448362213 L 1624.8759389391598 98.73436059420152 L 1624.6618833607513 98.75760988225869 L 1624.4473241911717 98.77989037548343 L 1624.2322828861586 98.80119984584495 L 1624.0167809496636 98.82153616241398 L 1623.8008399317007 98.8408972915758 L 1623.5844814261918 98.85928129723365 L 1623.3677270688074 98.87668634100228 L 1623.1505985348022 98.89311068239181 L 1622.9331175368486 98.90855267898178 L 1622.7153058228655 98.92301078658541 L 1622.4971851738428 98.93648355940398 L 1622.2787774016633 98.94896965017145 L 1622.0601043469226 98.96046781028913 L 1621.8411878767436 98.9709768899506 L 1621.622049882591 98.98049583825666 L 1621.402712278082 98.9890237033204 L 1621.1831969967934 98.99655963236242 L 1620.9635259900713 99.0031028717961 L 1620.7437212248328 99.00865276730295 L 1620.5238046813713 99.01320876389804 L 1620.303798351158 99.01677040598551 L 1620.0837242346427 99.01933733740412 L 1619.8636043390534 99.02090930146286 L 1619.6434606761964 99.02148614096664 L 1619.4233152602544 99.021067798232 L 1619.2031901055857 99.01965431509285 L 1618.983107224522 99.01724583289632 L 1618.7630886251684 99.01384259248866 L 1618.5431563092013 99.00944493419102 L 1618.3233322696692 99.00405329776561 L 1618.1036384887925 98.99766822237156 L 1617.8840969357666 98.99029034651109 L 1617.6647295645635 98.98192040796563 L 1617.4455583117378 98.97255924372207 L 1617.226605094232 98.96220778988905 L 1617.0078918071854 98.95086708160329 L 1616.7894403217445 98.93853825292621 L 1616.5712724828757 98.92522253673036 L 1616.3534101071812 98.91092126457629 L 1616.135874980717 98.8956358665793 L 1615.9186888568145 98.87936787126644 L 1615.701873453905 98.86211890542369 L 1615.485450453348 98.84389069393325 L 1615.2694414972634 98.8246850596011 L 1615.0538681863668 98.80450392297463 L 1614.8387520778097 98.78334930215074 L 1614.6241146830234 98.76122331257385 L 1614.409977465569 98.73812816682448 L 1614.1963618389893 98.71406617439796 L 1613.983289164669 98.6890397414735 L 1613.7707807496984 98.6630513706735 L 1613.5588578447416 98.6361036608134 L 1613.3475416419124 98.60819930664177 L 1613.1368532726551 98.57934109857071 L 1612.9268138056311 98.54953192239701 L 1612.7174442446121 98.51877475901345 L 1612.5087655263796 98.48707268411073 L 1612.3007985186316 98.45442886786992 L 1612.0935640178957 98.42084657464544 L 1611.887082747449 98.38632916263863 L 1611.6813753552467 98.35088008356193 L 1611.4764624118563 98.31450288229371 L 1611.2723644084017 98.27720119652378 L 1611.0691017545132 98.23897875638961 L 1610.8666947762865 98.1998393841034 L 1610.6651637142509 98.15978699356974 L 1610.4645287213448 98.1188255899943 L 1610.2648098609002 98.07695926948332 L 1610.0660271046365 98.03419221863396 L 1609.868200330664 97.99052871411565 L 1609.671349321495 97.94597312224248 L 1609.4754937620664 97.90052989853648 L 1609.280653237771 97.85420358728217 L 1609.086847232499 97.80699882107207 L 1608.8940951266893 97.75892032034346 L 1608.7024161953918 97.70997289290635 L 1608.51182960634 97.66016143346269 L 1608.3223544180337 97.60949092311692 L 1608.1340095778341 97.55796642887785 L 1607.9468139200685 97.50559310315195 L 1607.760786164146 97.45237618322817 L 1607.575944912688 97.39832099075414 L 1607.392308649665 97.34343293120408 L 1607.2098957385504 97.28771749333818 L 1607.0287244204835 97.23118024865381 L 1606.848812812445 97.17382685082835 L 1606.6701789054455 97.11566303515374 L 1606.4928405627275 97.0566946179631 L 1606.3168155179767 96.99692749604901 L 1606.1421213735516 96.93636764607388 L 1605.9687755987206 96.87502112397219 L 1605.7967955279169 96.81289406434506 L 1605.626198359004 96.74999267984667 L 1605.4570011515573 96.68632326056307 L 1605.289220825156 96.62189217338312 L 1605.1228741576929 96.55670586136183 L 1604.9579777836964 96.4907708430761 L 1604.7945481926663 96.4240937119728 L 1604.6326017274255 96.3566811357095 L 1604.4721545824857 96.28853985548761 L 1604.3132228024276 96.21967668537842 L 1604.155822280297 96.1500985116415 L 1603.9999687560144 96.07981229203628 L 1603.845677814803 96.00882505512612 L 1603.6929648856278 95.93714389957559 L 1603.5418452396548 95.86477599344049 L 1603.3923339887224 95.79172857345112 L 1603.2444460838315 95.71800894428863 L 1603.0981963136487 95.64362447785447 L 1602.95359930303 95.56858261253333 L 1602.8106695115553 95.4928908524492 L 1602.6694212320847 95.41655676671499 L 1602.5298685893288 95.33958798867569 L 1602.3920255384353 95.26199221514494 L 1602.2559058635945 95.18377720563545 L 1602.1215231766605 95.10495078158299 L 1601.98889091579 95.02552082556426 L 1601.8580223440983 94.94549528050867 L 1601.728930548334 94.86488214890406 L 1601.6016284375687 94.7836894919964 L 1601.4761287419074 94.70192542898371 L 1601.3524440112153 94.61959813620419 L 1601.2305866138624 94.53671584631847 L 1601.1105687354866 94.4532868474865 L 1600.992402377776 94.36931948253863 L 1600.8760993572678 94.28482214814137 L 1600.7616713041673 94.19980329395776 L 1600.6491296611841 94.11427142180236 L 1600.538485682389 94.02823508479112 L 1600.4297504320875 93.94170288648604 L 1600.3229347837141 93.85468348003484 L 1600.2180494187448 93.76718556730565 L 1600.1151048256284 93.67921789801682 L 1600.0141112987385 93.59078926886198 L 1599.9150789373437 93.50190852263036 L 1599.8180176445976 93.41258454732251 L 1599.7229371265487 93.32282627526152 L 1599.6298468911693 93.23264268219981 L 1599.5387562474057 93.14204278642153 L 1599.449674304246 93.05103564784075 L 1599.3626099698104 92.9596303670955 L 1599.27757195046 92.86783608463767 L 1599.1945687499256 92.77566197981902 L 1599.1136086684583 92.68311726997321 L 1599.0346998019986 92.59021120949413 L 1598.9578500413677 92.49695308891037 L 1598.8830670714772 92.40335223395631 L 1598.810358370562 92.30941800463943 L 1598.7397312094315 92.21515979430437 L 1598.671192650743 92.12058702869363 L 1598.6047495482956 92.02570916500495 L 1598.5404085463435 91.93053569094566 L 1598.4781760789338 91.83507612378382 L 1598.4180583692612 91.73934000939661 L 1598.3600614290465 91.64333692131571 L 1598.3041910579357 91.5470764597699 L 1598.2504528429188 91.45056825072513 L 1598.198852157773 91.35382194492188 L 1598.1493941625238 91.25684721691009 L 1598.1020838029292 91.15965376408177 L 1598.0569258099858 91.06225130570121 L 1598.0139246994556 90.96464958193306 L 1597.9730847714136 90.86685835286839 L 1597.9344101098184 90.7688873975486 L 1597.897904582104 90.67074651298756 L 1597.8635718387932 90.57244551319198 L 1597.831415313131 90.4739942281799 L 1597.8014382207436 90.37540250299779 L 1597.7736435593154 90.276680196736 L 1597.748034108289 90.17783718154287 L 1597.7246124285882 90.07888334163758 L 1597.7033808623619 89.97982857232165 L 1597.6843415327485 89.88068277898947 L 1597.6674963436653 89.78145587613774 L 1597.6528469796172 89.68215778637406 L 1597.6403949055284 89.58279843942468 L 1597.630141366596 89.48338777114147 L 1597.622087388165 89.38393572250841 L 1597.616233775627 89.28445223864752 L 1597.6125811143381 89.18494726782424 L 1597.6111297695616 89.08543076045278" stroke-miterlimit="10" stroke-width="2.5633703640000003" stroke-dasharray=""/></g><g><text fill="black" stroke="none" font-family="sans-serif" font-size="11pt" font-style="normal" font-weight="normal" text-decoration="normal" x="1589.7592628869384" y="115.200879888" text-anchor="start" dominant-baseline="alphabetic" xml:space="preserve">DB:User</text></g></g><g><path fill="white" stroke="black" paint-order="fill stroke markers" d=" M 83.03333282470703 127.26379924800001 L 98.11198202470703 127.26379924800001 L 98.11198202470703 1499.4208764479997 L 83.03333282470703 1499.4208764479997 L 83.03333282470703 127.26379924800001" stroke-miterlimit="10" stroke-width="1.2565541" stroke-dasharray=""/><path fill="white" stroke="black" paint-order="fill stroke markers" d=" M 447.2150542891601 184.56266620800002 L 462.29370348916007 184.56266620800002 L 462.29370348916007 1499.4208764479997 L 447.2150542891601 1499.4208764479997 L 447.2150542891601 184.56266620800002" stroke-miterlimit="10" stroke-width="1.2565541" stroke-dasharray=""/><path fill="white" stroke="black" paint-order="fill stroke markers" d=" M 873.5834212614257 267.495236808 L 888.6620704614256 267.495236808 L 888.6620704614256 703.268198688 L 873.5834212614257 703.268198688 L 873.5834212614257 267.495236808" stroke-miterlimit="10" stroke-width="1.2565541" stroke-dasharray=""/><path fill="white" stroke="black" paint-order="fill stroke markers" d=" M 873.5834212614257 768.1063902479999 L 888.6620704614256 768.1063902479999 L 888.6620704614256 1499.4208764479997 L 873.5834212614257 1499.4208764479997 L 873.5834212614257 768.1063902479999" stroke-miterlimit="10" stroke-width="1.2565541" stroke-dasharray=""/><path fill="white" stroke="black" paint-order="fill stroke markers" d=" M 1299.951788233691 872.1490697279999 L 1315.0304374336913 872.1490697279999 L 1315.0304374336913 1377.2838179279997 L 1299.951788233691 1377.2838179279997 L 1299.951788233691 872.1490697279999" stroke-miterlimit="10" stroke-width="1.2565541" stroke-dasharray=""/><path fill="white" stroke="black" paint-order="fill stroke markers" d=" M 1612.0866050807615 1016.9041020479998 L 1627.1652542807617 1016.9041020479998 L 1627.1652542807617 1059.1243198079999 L 1612.0866050807615 1059.1243198079999 L 1612.0866050807615 1016.9041020479998" stroke-miterlimit="10" stroke-width="1.2565541" stroke-dasharray=""/><path fill="white" stroke="black" paint-order="fill stroke markers" d=" M 1612.0866050807615 1208.4029468879999 L 1627.1652542807617 1208.4029468879999 L 1627.1652542807617 1250.6231646479998 L 1612.0866050807615 1250.6231646479998 L 1612.0866050807615 1208.4029468879999" stroke-miterlimit="10" stroke-width="1.2565541" stroke-dasharray=""/><path fill="white" stroke="black" paint-order="fill stroke markers" d=" M 1612.0866050807615 1292.8433824079998 L 1627.1652542807617 1292.8433824079998 L 1627.1652542807617 1335.0636001679998 L 1612.0866050807615 1335.0636001679998 L 1612.0866050807615 1292.8433824079998" stroke-miterlimit="10" stroke-width="1.2565541" stroke-dasharray=""/><g><g><rect fill="white" stroke="none" x="181.9950511602344" y="149.881773048" width="181.33693399339845" height="19.602243960000003"/></g><g><rect fill="white" stroke="none" x="181.9950511602344" y="164.96042224800001" width="157.00359048753907" height="19.602243960000003"/></g><text fill="black" stroke="none" font-family="sans-serif" font-size="11pt" font-style="normal" font-weight="normal" text-decoration="normal" x="184.2568485402344" y="163.452557328" text-anchor="start" dominant-baseline="alphabetic" xml:space="preserve">Click on register button </text><text fill="black" stroke="none" font-family="sans-serif" font-size="11pt" font-style="normal" font-weight="normal" text-decoration="normal" x="184.2568485402344" y="178.531206528" text-anchor="start" dominant-baseline="alphabetic" xml:space="preserve">with completed form</text></g><g><path fill="none" stroke="black" paint-order="fill stroke markers" d=" M 98.11198202470703 184.56266620800002 L 434.8002997811601 184.56266620800002" stroke-miterlimit="10" stroke-width="1.2565541" stroke-dasharray=""/><g transform="translate(447.2150542891601,184.56266620800002) translate(-447.2150542891601,-184.56266620800002)"><path fill="black" stroke="none" paint-order="stroke fill markers" d=" M 434.6495132891601 178.27989570800003 L 447.2150542891601 184.56266620800002 L 434.6495132891601 190.84543670800002 Z"/></g></g><g><g><rect fill="white" stroke="none" x="480.13677170916" y="247.892992848" width="375.6035813322656" height="19.602243960000003"/></g><text fill="black" stroke="none" font-family="sans-serif" font-size="11pt" font-style="normal" font-weight="normal" text-decoration="normal" x="482.39856908916" y="261.463777128" text-anchor="start" dominant-baseline="alphabetic" xml:space="preserve">registerUser(fstName, lastName, email, password)</text></g><g><path fill="none" stroke="black" paint-order="fill stroke markers" d=" M 462.29370348916007 267.495236808 L 861.1686667534257 267.495236808" stroke-miterlimit="10" stroke-width="1.2565541" stroke-dasharray=""/><g transform="translate(873.5834212614257,267.495236808) translate(-873.5834212614257,-267.495236808)"><path fill="black" stroke="none" paint-order="stroke fill markers" d=" M 861.0178802614256 261.212466308 L 873.5834212614257 267.495236808 L 861.0178802614256 273.77800730800004 Z"/></g></g><g><g><rect fill="white" stroke="none" x="906.5051386814257" y="330.825563448" width="258.8569230070703" height="19.602243960000003"/></g><text fill="black" stroke="none" font-family="sans-serif" font-size="11pt" font-style="normal" font-weight="normal" text-decoration="normal" x="908.7669360614257" y="344.396347728" text-anchor="start" dominant-baseline="alphabetic" xml:space="preserve">checkPassword(password) -&gt; false</text></g><g><path fill="none" stroke="black" paint-order="fill stroke markers" d=" M 888.6620704614256 350.42780740800004 L 948.9766672614256 350.42780740800004 L 948.9766672614256 370.03005136800004 L 901.0768249694256 370.03005136800004" stroke-miterlimit="10" stroke-width="1.2565541" stroke-dasharray=""/><g transform="translate(888.6620704614256,370.03005136800004) translate(-888.6620704614256,-370.03005136800004)"><path fill="black" stroke="none" paint-order="stroke fill markers" d=" M 901.2276114614257 363.747280868 L 888.6620704614256 370.03005136800004 L 901.2276114614257 376.31282186800007 Z"/></g></g><g><g><rect fill="white" stroke="none" x="531.6434245411913" y="392.64802516800006" width="272.5902756682031" height="19.602243960000003"/></g><text fill="black" stroke="none" font-family="sans-serif" font-size="11pt" font-style="normal" font-weight="normal" text-decoration="normal" x="533.9052219211912" y="406.2188094480001" text-anchor="start" dominant-baseline="alphabetic" xml:space="preserve">Show (password constraints banner)</text></g><g><path fill="none" stroke="black" paint-order="fill stroke markers" d=" M 873.5834212614257 412.25026912800007 L 474.70845799716005 412.25026912800007" stroke-miterlimit="10" stroke-width="1.2565541" stroke-dasharray="6.03145968"/><g transform="translate(462.29370348916007,412.25026912800007) translate(-462.29370348916007,-412.25026912800007)"><path fill="black" stroke="none" paint-order="stroke fill markers" d=" M 474.85924448916006 405.96749862800004 L 462.29370348916007 412.25026912800007 L 474.85924448916006 418.5330396280001 Z"/></g></g><g><g><rect fill="white" stroke="none" x="906.5051386814257" y="475.5805957680001" width="254.05693521410157" height="19.602243960000003"/></g><text fill="black" stroke="none" font-family="sans-serif" font-size="11pt" font-style="normal" font-weight="normal" text-decoration="normal" x="908.7669360614257" y="489.1513800480001" text-anchor="start" dominant-baseline="alphabetic" xml:space="preserve">checkPassword(password) -&gt; true</text></g><g><path fill="none" stroke="black" paint-order="fill stroke markers" d=" M 888.6620704614256 495.1828397280001 L 948.9766672614256 495.1828397280001 L 948.9766672614256 514.7850836880001 L 901.0768249694256 514.7850836880001" stroke-miterlimit="10" stroke-width="1.2565541" stroke-dasharray=""/><g transform="translate(888.6620704614256,514.7850836880001) translate(-888.6620704614256,-514.7850836880001)"><path fill="black" stroke="none" paint-order="stroke fill markers" d=" M 901.2276114614257 508.5023131880001 L 888.6620704614256 514.7850836880001 L 901.2276114614257 521.0678541880001 Z"/></g></g><g><g><rect fill="white" stroke="none" x="910.2748009814256" y="537.4030574880001" width="375.6035813322656" height="19.602243960000003"/></g><text fill="black" stroke="none" font-family="sans-serif" font-size="11pt" font-style="normal" font-weight="normal" text-decoration="normal" x="912.5365983614256" y="550.973841768" text-anchor="start" dominant-baseline="alphabetic" xml:space="preserve">registerUser(fstName, lastName, email, password)</text></g><g><path fill="none" stroke="black" paint-order="fill stroke markers" d=" M 888.6620704614256 557.0053014480001 L 1295.0763583256912 557.0053014480001" stroke-miterlimit="10" stroke-width="1.2565541" stroke-dasharray=""/><g transform="translate(1307.4911128336912,557.0053014480001) translate(-1307.4911128336912,-557.0053014480001)"><path fill="black" stroke="none" paint-order="stroke fill markers" d=" M 1294.9255718336913 550.7225309480001 L 1307.4911128336912 557.0053014480001 L 1294.9255718336913 563.288071948 Z"/></g></g><g><g><rect fill="white" stroke="none" x="1325.3341810536913" y="579.623275248" width="258.8569230070703" height="19.602243960000003"/></g><text fill="black" stroke="none" font-family="sans-serif" font-size="11pt" font-style="normal" font-weight="normal" text-decoration="normal" x="1327.5959784336912" y="593.194059528" text-anchor="start" dominant-baseline="alphabetic" xml:space="preserve">checkPassword(password) -&gt; false</text></g><g><path fill="none" stroke="black" paint-order="fill stroke markers" d=" M 1307.4911128336912 599.225519208 L 1367.805709633691 599.225519208 L 1367.805709633691 618.827763168 L 1319.9058673416912 618.827763168" stroke-miterlimit="10" stroke-width="1.2565541" stroke-dasharray=""/><g transform="translate(1307.4911128336912,618.827763168) translate(-1307.4911128336912,-618.827763168)"><path fill="black" stroke="none" paint-order="stroke fill markers" d=" M 1320.0566538336911 612.5449926680001 L 1307.4911128336912 618.827763168 L 1320.0566538336911 625.110533668 Z"/></g></g><g><g><rect fill="white" stroke="none" x="968.6481301440233" y="641.445736968" width="258.8569230070703" height="19.602243960000003"/></g><text fill="black" stroke="none" font-family="sans-serif" font-size="11pt" font-style="normal" font-weight="normal" text-decoration="normal" x="970.9099275240233" y="655.016521248" text-anchor="start" dominant-baseline="alphabetic" xml:space="preserve">checkPassword(password) -&gt; false</text></g><g><path fill="none" stroke="black" paint-order="fill stroke markers" d=" M 1307.4911128336912 661.047980928 L 901.0768249694256 661.047980928" stroke-miterlimit="10" stroke-width="1.2565541" stroke-dasharray="6.03145968"/><g transform="translate(888.6620704614256,661.047980928) translate(-888.6620704614256,-661.047980928)"><path fill="black" stroke="none" paint-order="stroke fill markers" d=" M 901.2276114614257 654.765210428 L 888.6620704614256 661.047980928 L 901.2276114614257 667.330751428 Z"/></g></g><g><g><rect fill="white" stroke="none" x="531.6434245411913" y="683.665954728" width="272.5902756682031" height="19.602243960000003"/></g><text fill="black" stroke="none" font-family="sans-serif" font-size="11pt" font-style="normal" font-weight="normal" text-decoration="normal" x="533.9052219211912" y="697.236739008" text-anchor="start" dominant-baseline="alphabetic" xml:space="preserve">Show (password constraints banner)</text></g><g><path fill="none" stroke="black" paint-order="fill stroke markers" d=" M 873.5834212614257 703.268198688 L 474.70845799716005 703.268198688" stroke-miterlimit="10" stroke-width="1.2565541" stroke-dasharray=""/><g transform="translate(462.29370348916007,703.268198688) translate(-462.29370348916007,-703.268198688)"><path fill="black" stroke="none" paint-order="stroke fill markers" d=" M 474.85924448916006 696.985428188 L 462.29370348916007 703.268198688 L 474.85924448916006 709.550969188 Z"/></g></g><g><g><rect fill="white" stroke="none" x="480.13677170916" y="748.5041462879999" width="375.6035813322656" height="19.602243960000003"/></g><text fill="black" stroke="none" font-family="sans-serif" font-size="11pt" font-style="normal" font-weight="normal" text-decoration="normal" x="482.39856908916" y="762.0749305679999" text-anchor="start" dominant-baseline="alphabetic" xml:space="preserve">registerUser(fstName, lastName, email, password)</text></g><g><path fill="none" stroke="black" paint-order="fill stroke markers" d=" M 462.29370348916007 768.1063902479999 L 861.1686667534257 768.1063902479999" stroke-miterlimit="10" stroke-width="1.2565541" stroke-dasharray=""/><g transform="translate(873.5834212614257,768.1063902479999) translate(-873.5834212614257,-768.1063902479999)"><path fill="black" stroke="none" paint-order="stroke fill markers" d=" M 861.0178802614256 761.8236197479999 L 873.5834212614257 768.1063902479999 L 861.0178802614256 774.3891607479999 Z"/></g></g><g><g><rect fill="white" stroke="none" x="906.5051386814257" y="790.7243640479999" width="254.05693521410157" height="19.602243960000003"/></g><text fill="black" stroke="none" font-family="sans-serif" font-size="11pt" font-style="normal" font-weight="normal" text-decoration="normal" x="908.7669360614257" y="804.2951483279999" text-anchor="start" dominant-baseline="alphabetic" xml:space="preserve">checkPassword(password) -&gt; true</text></g><g><path fill="none" stroke="black" paint-order="fill stroke markers" d=" M 888.6620704614256 810.3266080079999 L 948.9766672614256 810.3266080079999 L 948.9766672614256 829.9288519679999 L 901.0768249694256 829.9288519679999" stroke-miterlimit="10" stroke-width="1.2565541" stroke-dasharray=""/><g transform="translate(888.6620704614256,829.9288519679999) translate(-888.6620704614256,-829.9288519679999)"><path fill="black" stroke="none" paint-order="stroke fill markers" d=" M 901.2276114614257 823.6460814679999 L 888.6620704614256 829.9288519679999 L 901.2276114614257 836.2116224679999 Z"/></g></g><g><g><rect fill="white" stroke="none" x="906.5051386814255" y="852.5468257679998" width="375.6035813322656" height="19.602243960000003"/></g><text fill="black" stroke="none" font-family="sans-serif" font-size="11pt" font-style="normal" font-weight="normal" text-decoration="normal" x="908.7669360614254" y="866.1176100479998" text-anchor="start" dominant-baseline="alphabetic" xml:space="preserve">registerUser(fstName, lastName, email, password)</text></g><g><path fill="none" stroke="black" paint-order="fill stroke markers" d=" M 888.6620704614256 872.1490697279999 L 1287.5370337256911 872.1490697279999" stroke-miterlimit="10" stroke-width="1.2565541" stroke-dasharray=""/><g transform="translate(1299.951788233691,872.1490697279999) translate(-1299.951788233691,-872.1490697279999)"><path fill="black" stroke="none" paint-order="stroke fill markers" d=" M 1287.3862472336912 865.8662992279999 L 1299.951788233691 872.1490697279999 L 1287.3862472336912 878.4318402279998 Z"/></g></g><g><g><rect fill="white" stroke="none" x="1332.8735056536914" y="894.7670435279998" width="254.05693521410157" height="19.602243960000003"/></g><text fill="black" stroke="none" font-family="sans-serif" font-size="11pt" font-style="normal" font-weight="normal" text-decoration="normal" x="1335.1353030336913" y="908.3378278079998" text-anchor="start" dominant-baseline="alphabetic" xml:space="preserve">checkPassword(password) -&gt; true</text></g><g><path fill="none" stroke="black" paint-order="fill stroke markers" d=" M 1315.0304374336913 914.3692874879998 L 1375.3450342336914 914.3692874879998 L 1375.3450342336914 933.9715314479998 L 1327.4451919416913 933.9715314479998" stroke-miterlimit="10" stroke-width="1.2565541" stroke-dasharray=""/><g transform="translate(1315.0304374336913,933.9715314479998) translate(-1315.0304374336913,-933.9715314479998)"><path fill="black" stroke="none" paint-order="stroke fill markers" d=" M 1327.5959784336912 927.6887609479999 L 1315.0304374336913 933.9715314479998 L 1327.5959784336912 940.2543019479998 Z"/></g></g><g><g><rect fill="white" stroke="none" x="1392.4300551760546" y="997.3018580879998" width="142.25693216234376" height="19.602243960000003"/></g><text fill="black" stroke="none" font-family="sans-serif" font-size="11pt" font-style="normal" font-weight="normal" text-decoration="normal" x="1394.6918525560545" y="1010.8726423679998" text-anchor="start" dominant-baseline="alphabetic" xml:space="preserve">CheckEmail(email)</text></g><g><path fill="none" stroke="black" paint-order="fill stroke markers" d=" M 1315.0304374336913 1016.9041020479998 L 1599.6718505727615 1016.9041020479998" stroke-miterlimit="10" stroke-width="1.2565541" stroke-dasharray=""/><g transform="translate(1612.0866050807615,1016.9041020479998) translate(-1612.0866050807615,-1016.9041020479998)"><path fill="black" stroke="none" paint-order="stroke fill markers" d=" M 1599.5210640807616 1010.6213315479998 L 1612.0866050807615 1016.9041020479998 L 1599.5210640807616 1023.1868725479998 Z"/></g></g><g><g><rect fill="white" stroke="none" x="1358.6500563967577" y="1039.522075848" width="209.8169297209375" height="19.602243960000003"/></g><text fill="black" stroke="none" font-family="sans-serif" font-size="11pt" font-style="normal" font-weight="normal" text-decoration="normal" x="1360.9118537767577" y="1053.092860128" text-anchor="start" dominant-baseline="alphabetic" xml:space="preserve">Status(email already exists)</text></g><g><path fill="none" stroke="black" paint-order="fill stroke markers" d=" M 1612.0866050807615 1059.1243198079999 L 1327.4451919416913 1059.1243198079999" stroke-miterlimit="10" stroke-width="1.2565541" stroke-dasharray="6.03145968"/><g transform="translate(1315.0304374336913,1059.1243198079999) translate(-1315.0304374336913,-1059.1243198079999)"><path fill="black" stroke="none" paint-order="stroke fill markers" d=" M 1327.5959784336912 1052.841549308 L 1315.0304374336913 1059.1243198079999 L 1327.5959784336912 1065.4070903079999 Z"/></g></g><g><g><rect fill="white" stroke="none" x="989.3984644870895" y="1081.742293608" width="209.8169297209375" height="19.602243960000003"/></g><text fill="black" stroke="none" font-family="sans-serif" font-size="11pt" font-style="normal" font-weight="normal" text-decoration="normal" x="991.6602618670895" y="1095.313077888" text-anchor="start" dominant-baseline="alphabetic" xml:space="preserve">Status(email already exists)</text></g><g><path fill="none" stroke="black" paint-order="fill stroke markers" d=" M 1299.951788233691 1101.3445375679999 L 901.0768249694256 1101.3445375679999" stroke-miterlimit="10" stroke-width="1.2565541" stroke-dasharray="6.03145968"/><g transform="translate(888.6620704614256,1101.3445375679999) translate(-888.6620704614256,-1101.3445375679999)"><path fill="black" stroke="none" paint-order="stroke fill markers" d=" M 901.2276114614257 1095.0617670679999 L 888.6620704614256 1101.3445375679999 L 901.2276114614257 1107.6273080679998 Z"/></g></g><g><g><rect fill="white" stroke="none" x="538.3034282033007" y="1123.962511368" width="259.27026834398436" height="19.602243960000003"/></g><text fill="black" stroke="none" font-family="sans-serif" font-size="11pt" font-style="normal" font-weight="normal" text-decoration="normal" x="540.5652255833006" y="1137.533295648" text-anchor="start" dominant-baseline="alphabetic" xml:space="preserve">Show(email already exists banner)</text></g><g><path fill="none" stroke="black" paint-order="fill stroke markers" d=" M 873.5834212614257 1143.5647553279998 L 474.70845799716005 1143.5647553279998" stroke-miterlimit="10" stroke-width="1.2565541" stroke-dasharray="6.03145968"/><g transform="translate(462.29370348916007,1143.5647553279998) translate(-462.29370348916007,-1143.5647553279998)"><path fill="black" stroke="none" paint-order="stroke fill markers" d=" M 474.85924448916006 1137.2819848279998 L 462.29370348916007 1143.5647553279998 L 474.85924448916006 1149.8475258279998 Z"/></g></g><g><g><rect fill="white" stroke="none" x="1392.4300551760546" y="1188.800702928" width="142.25693216234376" height="19.602243960000003"/></g><text fill="black" stroke="none" font-family="sans-serif" font-size="11pt" font-style="normal" font-weight="normal" text-decoration="normal" x="1394.6918525560545" y="1202.371487208" text-anchor="start" dominant-baseline="alphabetic" xml:space="preserve">CheckEmail(email)</text></g><g><path fill="none" stroke="black" paint-order="fill stroke markers" d=" M 1315.0304374336913 1208.4029468879999 L 1599.6718505727615 1208.4029468879999" stroke-miterlimit="10" stroke-width="1.2565541" stroke-dasharray=""/><g transform="translate(1612.0866050807615,1208.4029468879999) translate(-1612.0866050807615,-1208.4029468879999)"><path fill="black" stroke="none" paint-order="stroke fill markers" d=" M 1599.5210640807616 1202.120176388 L 1612.0866050807615 1208.4029468879999 L 1599.5210640807616 1214.6857173879998 Z"/></g></g><g><g><rect fill="white" stroke="none" x="1421.630055938994" y="1231.020920688" width="83.85693063646484" height="19.602243960000003"/></g><text fill="black" stroke="none" font-family="sans-serif" font-size="11pt" font-style="normal" font-weight="normal" text-decoration="normal" x="1423.891853318994" y="1244.591704968" text-anchor="start" dominant-baseline="alphabetic" xml:space="preserve">Status(OK)</text></g><g><path fill="none" stroke="black" paint-order="fill stroke markers" d=" M 1612.0866050807615 1250.6231646479998 L 1327.4451919416913 1250.6231646479998" stroke-miterlimit="10" stroke-width="1.2565541" stroke-dasharray="6.03145968"/><g transform="translate(1315.0304374336913,1250.6231646479998) translate(-1315.0304374336913,-1250.6231646479998)"><path fill="black" stroke="none" paint-order="stroke fill markers" d=" M 1327.5959784336912 1244.3403941479999 L 1315.0304374336913 1250.6231646479998 L 1327.5959784336912 1256.9059351479998 Z"/></g></g><g><g><rect fill="white" stroke="none" x="1420.8633895266405" y="1273.241138448" width="85.39026346117187" height="19.602243960000003"/></g><text fill="black" stroke="none" font-family="sans-serif" font-size="11pt" font-style="normal" font-weight="normal" text-decoration="normal" x="1423.1251869066405" y="1286.811922728" text-anchor="start" dominant-baseline="alphabetic" xml:space="preserve">SaveUser()</text></g><g><path fill="none" stroke="black" paint-order="fill stroke markers" d=" M 1315.0304374336913 1292.8433824079998 L 1599.6718505727615 1292.8433824079998" stroke-miterlimit="10" stroke-width="1.2565541" stroke-dasharray=""/><g transform="translate(1612.0866050807615,1292.8433824079998) translate(-1612.0866050807615,-1292.8433824079998)"><path fill="black" stroke="none" paint-order="stroke fill markers" d=" M 1599.5210640807616 1286.5606119079998 L 1612.0866050807615 1292.8433824079998 L 1599.5210640807616 1299.1261529079998 Z"/></g></g><g><g><rect fill="white" stroke="none" x="1421.630055938994" y="1315.4613562079999" width="83.85693063646484" height="19.602243960000003"/></g><text fill="black" stroke="none" font-family="sans-serif" font-size="11pt" font-style="normal" font-weight="normal" text-decoration="normal" x="1423.891853318994" y="1329.0321404879999" text-anchor="start" dominant-baseline="alphabetic" xml:space="preserve">Status(OK)</text></g><g><path fill="none" stroke="black" paint-order="fill stroke markers" d=" M 1612.0866050807615 1335.0636001679998 L 1327.4451919416913 1335.0636001679998" stroke-miterlimit="10" stroke-width="1.2565541" stroke-dasharray="6.03145968"/><g transform="translate(1315.0304374336913,1335.0636001679998) translate(-1315.0304374336913,-1335.0636001679998)"><path fill="black" stroke="none" paint-order="stroke fill markers" d=" M 1327.5959784336912 1328.7808296679998 L 1315.0304374336913 1335.0636001679998 L 1327.5959784336912 1341.3463706679997 Z"/></g></g><g><g><rect fill="white" stroke="none" x="1005.2517970066208" y="1357.6815739679998" width="178.110264681875" height="19.602243960000003"/></g><text fill="black" stroke="none" font-family="sans-serif" font-size="11pt" font-style="normal" font-weight="normal" text-decoration="normal" x="1007.5135943866208" y="1371.2523582479998" text-anchor="start" dominant-baseline="alphabetic" xml:space="preserve">Status(OK) &amp; JWT token</text></g><g><path fill="none" stroke="black" paint-order="fill stroke markers" d=" M 1299.951788233691 1377.2838179279997 L 901.0768249694256 1377.2838179279997" stroke-miterlimit="10" stroke-width="1.2565541" stroke-dasharray="6.03145968"/><g transform="translate(888.6620704614256,1377.2838179279997) translate(-888.6620704614256,-1377.2838179279997)"><path fill="black" stroke="none" paint-order="stroke fill markers" d=" M 901.2276114614257 1371.0010474279998 L 888.6620704614256 1377.2838179279997 L 901.2276114614257 1383.5665884279997 Z"/></g></g><g><g><rect fill="white" stroke="none" x="558.1234278981249" y="1399.9017917279998" width="219.63026895433595" height="19.602243960000003"/></g><text fill="black" stroke="none" font-family="sans-serif" font-size="11pt" font-style="normal" font-weight="normal" text-decoration="normal" x="560.3852252781248" y="1413.4725760079998" text-anchor="start" dominant-baseline="alphabetic" xml:space="preserve">Show(Registered succesfully)</text></g><g><path fill="none" stroke="black" paint-order="fill stroke markers" d=" M 873.5834212614257 1419.5040356879997 L 474.70845799716005 1419.5040356879997" stroke-miterlimit="10" stroke-width="1.2565541" stroke-dasharray="6.03145968"/><g transform="translate(462.29370348916007,1419.5040356879997) translate(-462.29370348916007,-1419.5040356879997)"><path fill="black" stroke="none" paint-order="stroke fill markers" d=" M 474.85924448916006 1413.2212651879997 L 462.29370348916007 1419.5040356879997 L 474.85924448916006 1425.7868061879997 Z"/></g></g><g><g><rect fill="white" stroke="none" x="115.95505024470704" y="1442.1220094879998" width="313.4169358244531" height="19.602243960000003"/></g><text fill="black" stroke="none" font-family="sans-serif" font-size="11pt" font-style="normal" font-weight="normal" text-decoration="normal" x="118.21684762470704" y="1455.6927937679998" text-anchor="start" dominant-baseline="alphabetic" xml:space="preserve">User is loged in and redirected to Explore.</text></g><g><path fill="none" stroke="black" paint-order="fill stroke markers" d=" M 447.2150542891601 1461.7242534479997 L 110.52673653270703 1461.7242534479997" stroke-miterlimit="10" stroke-width="1.2565541" stroke-dasharray="6.03145968"/><g transform="translate(98.11198202470703,1461.7242534479997) translate(-98.11198202470703,-1461.7242534479997)"><path fill="black" stroke="none" paint-order="stroke fill markers" d=" M 110.67752302470703 1455.4414829479997 L 98.11198202470703 1461.7242534479997 L 110.67752302470703 1468.0070239479996 Z"/></g></g><g><g/><path fill="none" stroke="black" paint-order="fill stroke markers" d=" M 394.4397820891601 207.180640008 L 1589.4686312807612 207.180640008 L 1589.4686312807612 725.8861724879998 L 394.4397820891601 725.8861724879998 L 394.4397820891601 207.180640008 Z" stroke-miterlimit="10" stroke-width="2.154092742857143" stroke-dasharray=""/><path fill="white" stroke="black" paint-order="fill stroke markers" d=" M 394.4397820891601 207.180640008 L 394.4397820891601 225.27501904800002 L 442.15707995510246 225.27501904800002 L 451.2042694751025 216.227829528 L 451.2042694751025 207.180640008 L 394.4397820891601 207.180640008" stroke-miterlimit="10" stroke-width="2.154092742857143" stroke-dasharray=""/><text fill="black" stroke="none" font-family="sans-serif" font-size="8.8pt" font-style="normal" font-weight="bold" text-decoration="normal" x="409.51843128916005" y="219.243559368" text-anchor="start" dominant-baseline="alphabetic" xml:space="preserve">alt</text><text fill="black" stroke="none" font-family="sans-serif" font-size="8.8pt" font-style="normal" font-weight="bold" text-decoration="normal" x="466.28291867510245" y="219.243559368" text-anchor="start" dominant-baseline="alphabetic" xml:space="preserve">[Password requirements]</text><g><path fill="none" stroke="black" paint-order="fill stroke markers" d=" M 394.4397820891601 290.11321060800003 L 1589.4686312807614 290.11321060800003" stroke-miterlimit="10" stroke-width="2.154092742857143" stroke-dasharray="3.7696623000000002"/></g><g/><text fill="black" stroke="none" font-family="sans-serif" font-size="8.8pt" font-style="normal" font-weight="bold" text-decoration="normal" x="466.28291867510245" y="302.176129968" text-anchor="start" dominant-baseline="alphabetic" xml:space="preserve">[password validation on client]</text><g><path fill="none" stroke="black" paint-order="fill stroke markers" d=" M 394.4397820891601 434.8682429280001 L 1589.4686312807614 434.8682429280001" stroke-miterlimit="10" stroke-width="2.154092742857143" stroke-dasharray="3.7696623000000002"/></g><g/><text fill="black" stroke="none" font-family="sans-serif" font-size="8.8pt" font-style="normal" font-weight="bold" text-decoration="normal" x="466.28291867510245" y="446.93116228800005" text-anchor="start" dominant-baseline="alphabetic" xml:space="preserve">[password validation on server]</text></g><g/><g/><g><g/><path fill="none" stroke="black" paint-order="fill stroke markers" d=" M 394.4397820891601 956.5895052479998 L 1672.4012018807616 956.5895052479998 L 1672.4012018807616 1166.182729128 L 394.4397820891601 1166.182729128 L 394.4397820891601 956.5895052479998 Z" stroke-miterlimit="10" stroke-width="2.154092742857143" stroke-dasharray=""/><path fill="white" stroke="black" paint-order="fill stroke markers" d=" M 394.4397820891601 956.5895052479998 L 394.4397820891601 974.6838842879998 L 442.15707995510246 974.6838842879998 L 451.2042694751025 965.6366947679998 L 451.2042694751025 956.5895052479998 L 394.4397820891601 956.5895052479998" stroke-miterlimit="10" stroke-width="2.154092742857143" stroke-dasharray=""/><text fill="black" stroke="none" font-family="sans-serif" font-size="8.8pt" font-style="normal" font-weight="bold" text-decoration="normal" x="409.51843128916005" y="968.6524246079998" text-anchor="start" dominant-baseline="alphabetic" xml:space="preserve">alt</text><text fill="black" stroke="none" font-family="sans-serif" font-size="8.8pt" font-style="normal" font-weight="bold" text-decoration="normal" x="466.28291867510245" y="968.6524246079998" text-anchor="start" dominant-baseline="alphabetic" xml:space="preserve">[Email already exists]</text></g></g><g/></g></svg>